<svg width="37" height="30" viewBox="0 0 37 30" fill="none" xmlns="http://www.w3.org/2000/svg">
<path d="M34.4988 13.125V25.3125C34.4988 25.7031 34.4111 26.0693 34.2358 26.4111C34.0604 26.7529 33.8208 27.0508 33.5169 27.3047C33.213 27.5586 32.8564 27.7588 32.4473 27.9053C32.0382 28.0518 31.5998 28.125 31.1323 28.125H6.44478C5.97721 28.125 5.53887 28.0518 5.12975 27.9053C4.72063 27.7588 4.36411 27.5586 4.06019 27.3047C3.75627 27.0508 3.51665 26.7529 3.34131 26.4111C3.16597 26.0693 3.0783 25.7031 3.0783 25.3125V17.8857C3.0783 17.5244 3.08415 17.1973 3.09584 16.9043C3.10753 16.6113 3.11921 16.3232 3.1309 16.04C3.14259 15.7568 3.14844 15.4639 3.14844 15.1611C3.14844 14.8584 3.12506 14.5312 3.0783 14.1797C3.05492 13.9746 3.01986 13.7891 2.9731 13.623C2.92634 13.457 2.87959 13.291 2.83283 13.125C2.78607 12.959 2.72763 12.8027 2.65749 12.6562C2.58736 12.5098 2.52307 12.3242 2.46462 12.0996L1.21973 7.9248L31.6934 1.56738L33.8675 8.84766L13.3355 13.125H34.4988ZM12.7745 7.44141L7.14613 8.61328L13.318 11.1914L18.9463 10.0195L12.7745 7.44141ZM22.2953 9.33105L27.9411 8.14453L21.7693 5.58105L16.1234 6.75293L22.2953 9.33105ZM3.95499 9.38965L5.02455 12.9199L9.96906 11.8945L3.95499 9.38965ZM30.0627 3.83789L25.1182 4.87793L31.1147 7.38281L30.0627 3.83789ZM32.2544 15H5.32262V25.3125C5.32262 25.5664 5.43367 25.7861 5.65576 25.9717C5.87786 26.1572 6.14086 26.25 6.44478 26.25H31.1323C31.4362 26.25 31.6992 26.1572 31.9213 25.9717C32.1434 25.7861 32.2544 25.5664 32.2544 25.3125V15Z" fill="#D6D6D6"/>
</svg>
