<svg width="15" height="11" viewBox="0 0 15 11" fill="none" xmlns="http://www.w3.org/2000/svg">
<path d="M6.90398 8.65375C6.95654 8.70926 7.02686 8.75466 7.1089 8.78601C7.19094 8.81737 7.28223 8.83376 7.37491 8.83376C7.46759 8.83376 7.55889 8.81737 7.64092 8.78601C7.72296 8.75466 7.79329 8.70926 7.84585 8.65375L13.0021 3.23708C13.0618 3.1746 13.0968 3.10142 13.1033 3.0255C13.1098 2.94957 13.0876 2.8738 13.039 2.80641C12.9905 2.73902 12.9175 2.6826 12.828 2.64327C12.7384 2.60394 12.6358 2.58321 12.5312 2.58333H2.21866C2.1143 2.58364 2.01203 2.60464 1.92286 2.64406C1.83368 2.68349 1.76096 2.73984 1.71253 2.80708C1.6641 2.87431 1.64179 2.94987 1.64799 3.02563C1.65419 3.1014 1.68867 3.1745 1.74773 3.23708L6.90398 8.65375Z" fill="white"/>
</svg>
