<svg width="25" height="25" viewBox="0 0 25 25" fill="none" xmlns="http://www.w3.org/2000/svg">
<path d="M24.1668 24.1667L17.5002 17.5M10.8335 20.8333C9.52028 20.8333 8.21992 20.5747 7.00666 20.0721C5.7934 19.5696 4.69101 18.833 3.76243 17.9044C2.83384 16.9758 2.09725 15.8734 1.5947 14.6602C1.09215 13.4469 0.833496 12.1465 0.833496 10.8333C0.833496 9.52011 1.09215 8.21975 1.5947 7.00649C2.09725 5.79324 2.83384 4.69085 3.76243 3.76226C4.69101 2.83367 5.7934 2.09708 7.00666 1.59453C8.21992 1.09199 9.52028 0.833328 10.8335 0.833328C13.4857 0.833328 16.0292 1.8869 17.9046 3.76226C19.7799 5.63762 20.8335 8.18116 20.8335 10.8333C20.8335 13.4855 19.7799 16.029 17.9046 17.9044C16.0292 19.7798 13.4857 20.8333 10.8335 20.8333Z" stroke="#DDDDDD" stroke-width="1.25"/>
</svg>
