<svg width="22" height="22" viewBox="0 0 22 22" fill="none" xmlns="http://www.w3.org/2000/svg">
<path d="M2.271 10.875C2.271 15.7652 6.23501 19.7292 11.1252 19.7292C16.0153 19.7292 19.9793 15.7652 19.9793 10.875C19.9793 5.98484 16.0153 2.02083 11.1252 2.02083C6.23501 2.02083 2.271 5.98484 2.271 10.875Z" stroke="#F8F8F8" stroke-width="1.875" stroke-linecap="round" stroke-linejoin="round"/>
<path d="M12.0104 2.06509C12.0104 2.06509 14.6666 5.56249 14.6666 10.875C14.6666 16.1875 12.0104 19.6849 12.0104 19.6849M10.2396 19.6849C10.2396 19.6849 7.5833 16.1875 7.5833 10.875C7.5833 5.56249 10.2396 2.06509 10.2396 2.06509M2.82861 13.9739H19.4213M2.82861 7.77603H19.4213" stroke="#F8F8F8" stroke-width="1.875" stroke-linecap="round" stroke-linejoin="round"/>
</svg>
